<svg xmlns="http://www.w3.org/2000/svg" xmlns:xlink="http://www.w3.org/1999/xlink" style="display: none;">
	<symbol id="rdc-logo" width="100%" height="14" viewBox="0 0 186 14" fill="none" xmlns="http://www.w3.org/2000/svg">
		<path d="M182.672 6.3125V12.9219H180.422V4.46875H182.539L182.672 6.3125ZM185.219 4.41406L185.18 6.5C185.07 6.48438 184.938 6.47135 184.781 6.46094C184.63 6.44531 184.492 6.4375 184.367 6.4375C184.049 6.4375 183.773 6.47917 183.539 6.5625C183.31 6.64062 183.117 6.75781 182.961 6.91406C182.81 7.07031 182.695 7.26042 182.617 7.48438C182.544 7.70833 182.503 7.96354 182.492 8.25L182.039 8.10938C182.039 7.5625 182.094 7.0599 182.203 6.60156C182.312 6.13802 182.471 5.73438 182.68 5.39062C182.893 5.04688 183.154 4.78125 183.461 4.59375C183.768 4.40625 184.12 4.3125 184.516 4.3125C184.641 4.3125 184.768 4.32292 184.898 4.34375C185.029 4.35938 185.135 4.38281 185.219 4.41406Z" fill="currentColor"/>
		<path d="M171.422 0.921875H173.672V10.9844L173.445 12.9219H171.422V0.921875ZM179.023 8.60938V8.77344C179.023 9.40365 178.956 9.98177 178.82 10.5078C178.69 11.0339 178.487 11.4896 178.211 11.875C177.935 12.2552 177.591 12.5521 177.18 12.7656C176.773 12.974 176.294 13.0781 175.742 13.0781C175.227 13.0781 174.779 12.974 174.398 12.7656C174.023 12.5573 173.708 12.263 173.453 11.8828C173.198 11.5026 172.992 11.0573 172.836 10.5469C172.68 10.0365 172.562 9.47917 172.484 8.875V8.51562C172.562 7.91146 172.68 7.35417 172.836 6.84375C172.992 6.33333 173.198 5.88802 173.453 5.50781C173.708 5.1276 174.023 4.83333 174.398 4.625C174.773 4.41667 175.216 4.3125 175.727 4.3125C176.284 4.3125 176.768 4.41927 177.18 4.63281C177.596 4.84115 177.94 5.13802 178.211 5.52344C178.487 5.90365 178.69 6.35677 178.82 6.88281C178.956 7.40365 179.023 7.97917 179.023 8.60938ZM176.773 8.77344V8.60938C176.773 8.26562 176.747 7.94271 176.695 7.64062C176.648 7.33333 176.565 7.0651 176.445 6.83594C176.326 6.60156 176.161 6.41667 175.953 6.28125C175.75 6.14583 175.487 6.07812 175.164 6.07812C174.857 6.07812 174.596 6.13021 174.383 6.23438C174.169 6.33854 173.992 6.48438 173.852 6.67188C173.716 6.85938 173.615 7.08333 173.547 7.34375C173.479 7.59896 173.438 7.88021 173.422 8.1875V9.21094C173.438 9.6224 173.505 9.98698 173.625 10.3047C173.75 10.6172 173.938 10.8646 174.188 11.0469C174.443 11.224 174.773 11.3125 175.18 11.3125C175.497 11.3125 175.76 11.25 175.969 11.125C176.177 11 176.339 10.8229 176.453 10.5938C176.573 10.3646 176.656 10.0964 176.703 9.78906C176.75 9.47656 176.773 9.13802 176.773 8.77344Z" fill="currentColor"/>
		<path d="M166.891 11.8359C166.891 11.5026 167.005 11.224 167.234 11C167.469 10.776 167.779 10.6641 168.164 10.6641C168.549 10.6641 168.857 10.776 169.086 11C169.32 11.224 169.438 11.5026 169.438 11.8359C169.438 12.1693 169.32 12.4479 169.086 12.6719C168.857 12.8958 168.549 13.0078 168.164 13.0078C167.779 13.0078 167.469 12.8958 167.234 12.6719C167.005 12.4479 166.891 12.1693 166.891 11.8359Z" fill="currentColor"/>
		<path d="M155.172 6.21875V12.9219H152.914V4.46875H155.031L155.172 6.21875ZM154.859 8.39844H154.234C154.234 7.8099 154.305 7.26823 154.445 6.77344C154.591 6.27344 154.802 5.84115 155.078 5.47656C155.359 5.10677 155.706 4.82031 156.117 4.61719C156.529 4.41406 157.005 4.3125 157.547 4.3125C157.922 4.3125 158.266 4.36979 158.578 4.48438C158.891 4.59375 159.159 4.76823 159.383 5.00781C159.612 5.24219 159.789 5.54948 159.914 5.92969C160.039 6.30469 160.102 6.75521 160.102 7.28125V12.9219H157.852V7.53125C157.852 7.14583 157.799 6.84896 157.695 6.64062C157.591 6.43229 157.443 6.28646 157.25 6.20312C157.062 6.11979 156.836 6.07812 156.57 6.07812C156.279 6.07812 156.023 6.13802 155.805 6.25781C155.591 6.3776 155.414 6.54427 155.273 6.75781C155.133 6.96615 155.029 7.21094 154.961 7.49219C154.893 7.77344 154.859 8.07552 154.859 8.39844ZM159.891 8.14062L159.086 8.24219C159.086 7.6901 159.154 7.17708 159.289 6.70312C159.43 6.22917 159.635 5.8125 159.906 5.45312C160.182 5.09375 160.523 4.8151 160.93 4.61719C161.336 4.41406 161.805 4.3125 162.336 4.3125C162.742 4.3125 163.112 4.3724 163.445 4.49219C163.779 4.60677 164.062 4.79167 164.297 5.04688C164.536 5.29688 164.719 5.625 164.844 6.03125C164.974 6.4375 165.039 6.9349 165.039 7.52344V12.9219H162.781V7.52344C162.781 7.13281 162.729 6.83594 162.625 6.63281C162.526 6.42448 162.38 6.28125 162.188 6.20312C162 6.11979 161.776 6.07812 161.516 6.07812C161.245 6.07812 161.008 6.13281 160.805 6.24219C160.602 6.34635 160.432 6.49219 160.297 6.67969C160.161 6.86719 160.06 7.08594 159.992 7.33594C159.924 7.58073 159.891 7.84896 159.891 8.14062Z" fill="currentColor"/>
		<path d="M143.531 8.78125V8.61719C143.531 7.9974 143.62 7.42708 143.797 6.90625C143.974 6.38021 144.232 5.92448 144.57 5.53906C144.909 5.15365 145.326 4.85417 145.82 4.64062C146.315 4.42188 146.883 4.3125 147.523 4.3125C148.164 4.3125 148.734 4.42188 149.234 4.64062C149.734 4.85417 150.154 5.15365 150.492 5.53906C150.836 5.92448 151.096 6.38021 151.273 6.90625C151.451 7.42708 151.539 7.9974 151.539 8.61719V8.78125C151.539 9.39583 151.451 9.96615 151.273 10.4922C151.096 11.013 150.836 11.4688 150.492 11.8594C150.154 12.2448 149.737 12.5443 149.242 12.7578C148.747 12.9714 148.18 13.0781 147.539 13.0781C146.898 13.0781 146.328 12.9714 145.828 12.7578C145.333 12.5443 144.914 12.2448 144.57 11.8594C144.232 11.4688 143.974 11.013 143.797 10.4922C143.62 9.96615 143.531 9.39583 143.531 8.78125ZM145.781 8.61719V8.78125C145.781 9.13542 145.812 9.46615 145.875 9.77344C145.938 10.0807 146.036 10.3516 146.172 10.5859C146.312 10.8151 146.495 10.9948 146.719 11.125C146.943 11.2552 147.216 11.3203 147.539 11.3203C147.852 11.3203 148.12 11.2552 148.344 11.125C148.568 10.9948 148.747 10.8151 148.883 10.5859C149.018 10.3516 149.117 10.0807 149.18 9.77344C149.247 9.46615 149.281 9.13542 149.281 8.78125V8.61719C149.281 8.27344 149.247 7.95052 149.18 7.64844C149.117 7.34115 149.016 7.07031 148.875 6.83594C148.74 6.59635 148.56 6.40885 148.336 6.27344C148.112 6.13802 147.841 6.07031 147.523 6.07031C147.206 6.07031 146.935 6.13802 146.711 6.27344C146.492 6.40885 146.312 6.59635 146.172 6.83594C146.036 7.07031 145.938 7.34115 145.875 7.64844C145.812 7.95052 145.781 8.27344 145.781 8.61719Z" fill="currentColor"/>
		<path d="M139.039 11.3203C139.315 11.3203 139.56 11.2682 139.773 11.1641C139.987 11.0547 140.154 10.9036 140.273 10.7109C140.398 10.513 140.464 10.2812 140.469 10.0156H142.586C142.581 10.6094 142.422 11.138 142.109 11.6016C141.797 12.0599 141.378 12.4219 140.852 12.6875C140.326 12.9479 139.737 13.0781 139.086 13.0781C138.43 13.0781 137.857 12.9688 137.367 12.75C136.883 12.5312 136.479 12.2292 136.156 11.8438C135.833 11.4531 135.591 11 135.43 10.4844C135.268 9.96354 135.188 9.40625 135.188 8.8125V8.58594C135.188 7.98698 135.268 7.42969 135.43 6.91406C135.591 6.39323 135.833 5.9401 136.156 5.55469C136.479 5.16406 136.883 4.85938 137.367 4.64062C137.852 4.42188 138.419 4.3125 139.07 4.3125C139.763 4.3125 140.37 4.44531 140.891 4.71094C141.417 4.97656 141.828 5.35677 142.125 5.85156C142.427 6.34115 142.581 6.92188 142.586 7.59375H140.469C140.464 7.3125 140.404 7.05729 140.289 6.82812C140.18 6.59896 140.018 6.41667 139.805 6.28125C139.596 6.14062 139.339 6.07031 139.031 6.07031C138.703 6.07031 138.435 6.14062 138.227 6.28125C138.018 6.41667 137.857 6.60417 137.742 6.84375C137.628 7.07812 137.547 7.34635 137.5 7.64844C137.458 7.94531 137.438 8.25781 137.438 8.58594V8.8125C137.438 9.14062 137.458 9.45573 137.5 9.75781C137.542 10.0599 137.62 10.3281 137.734 10.5625C137.854 10.7969 138.018 10.9818 138.227 11.1172C138.435 11.2526 138.706 11.3203 139.039 11.3203Z" fill="currentColor"/>
		<path d="M131.016 11.8359C131.016 11.5026 131.13 11.224 131.359 11C131.594 10.776 131.904 10.6641 132.289 10.6641C132.674 10.6641 132.982 10.776 133.211 11C133.445 11.224 133.562 11.5026 133.562 11.8359C133.562 12.1693 133.445 12.4479 133.211 12.6719C132.982 12.8958 132.674 13.0078 132.289 13.0078C131.904 13.0078 131.594 12.8958 131.359 12.6719C131.13 12.4479 131.016 12.1693 131.016 11.8359Z" fill="currentColor"/>
		<path d="M126.156 13.0781C125.5 13.0781 124.911 12.974 124.391 12.7656C123.87 12.5521 123.427 12.2578 123.062 11.8828C122.703 11.5078 122.427 11.0729 122.234 10.5781C122.042 10.0781 121.945 9.54688 121.945 8.98438V8.67188C121.945 8.03125 122.036 7.44531 122.219 6.91406C122.401 6.38281 122.661 5.92188 123 5.53125C123.344 5.14062 123.76 4.84115 124.25 4.63281C124.74 4.41927 125.292 4.3125 125.906 4.3125C126.505 4.3125 127.036 4.41146 127.5 4.60938C127.964 4.80729 128.352 5.08854 128.664 5.45312C128.982 5.81771 129.221 6.25521 129.383 6.76562C129.544 7.27083 129.625 7.83333 129.625 8.45312V9.39062H122.906V7.89062H127.414V7.71875C127.414 7.40625 127.357 7.1276 127.242 6.88281C127.133 6.63281 126.966 6.4349 126.742 6.28906C126.518 6.14323 126.232 6.07031 125.883 6.07031C125.586 6.07031 125.331 6.13542 125.117 6.26562C124.904 6.39583 124.729 6.57812 124.594 6.8125C124.464 7.04688 124.365 7.32292 124.297 7.64062C124.234 7.95312 124.203 8.29688 124.203 8.67188V8.98438C124.203 9.32292 124.25 9.63542 124.344 9.92188C124.443 10.2083 124.581 10.4557 124.758 10.6641C124.94 10.8724 125.159 11.0339 125.414 11.1484C125.674 11.263 125.969 11.3203 126.297 11.3203C126.703 11.3203 127.081 11.2422 127.43 11.0859C127.784 10.9245 128.089 10.6823 128.344 10.3594L129.438 11.5469C129.26 11.8021 129.018 12.0469 128.711 12.2812C128.409 12.5156 128.044 12.7083 127.617 12.8594C127.19 13.0052 126.703 13.0781 126.156 13.0781Z" fill="currentColor"/>
		<path d="M115.492 0.921875V12.9219H113.242V0.921875H115.492ZM115.172 8.39844H114.555C114.56 7.8099 114.638 7.26823 114.789 6.77344C114.94 6.27344 115.156 5.84115 115.438 5.47656C115.719 5.10677 116.055 4.82031 116.445 4.61719C116.841 4.41406 117.279 4.3125 117.758 4.3125C118.174 4.3125 118.552 4.3724 118.891 4.49219C119.234 4.60677 119.529 4.79427 119.773 5.05469C120.023 5.3099 120.216 5.64583 120.352 6.0625C120.487 6.47917 120.555 6.98438 120.555 7.57812V12.9219H118.289V7.5625C118.289 7.1875 118.234 6.89323 118.125 6.67969C118.021 6.46094 117.867 6.30729 117.664 6.21875C117.466 6.125 117.221 6.07812 116.93 6.07812C116.607 6.07812 116.331 6.13802 116.102 6.25781C115.878 6.3776 115.698 6.54427 115.562 6.75781C115.427 6.96615 115.328 7.21094 115.266 7.49219C115.203 7.77344 115.172 8.07552 115.172 8.39844Z" fill="currentColor"/>
		<path d="M108.445 11.3203C108.721 11.3203 108.966 11.2682 109.18 11.1641C109.393 11.0547 109.56 10.9036 109.68 10.7109C109.805 10.513 109.87 10.2812 109.875 10.0156H111.992C111.987 10.6094 111.828 11.138 111.516 11.6016C111.203 12.0599 110.784 12.4219 110.258 12.6875C109.732 12.9479 109.143 13.0781 108.492 13.0781C107.836 13.0781 107.263 12.9688 106.773 12.75C106.289 12.5312 105.885 12.2292 105.562 11.8438C105.24 11.4531 104.997 11 104.836 10.4844C104.674 9.96354 104.594 9.40625 104.594 8.8125V8.58594C104.594 7.98698 104.674 7.42969 104.836 6.91406C104.997 6.39323 105.24 5.9401 105.562 5.55469C105.885 5.16406 106.289 4.85938 106.773 4.64062C107.258 4.42188 107.826 4.3125 108.477 4.3125C109.169 4.3125 109.776 4.44531 110.297 4.71094C110.823 4.97656 111.234 5.35677 111.531 5.85156C111.833 6.34115 111.987 6.92188 111.992 7.59375H109.875C109.87 7.3125 109.81 7.05729 109.695 6.82812C109.586 6.59896 109.424 6.41667 109.211 6.28125C109.003 6.14062 108.745 6.07031 108.438 6.07031C108.109 6.07031 107.841 6.14062 107.633 6.28125C107.424 6.41667 107.263 6.60417 107.148 6.84375C107.034 7.07812 106.953 7.34635 106.906 7.64844C106.865 7.94531 106.844 8.25781 106.844 8.58594V8.8125C106.844 9.14062 106.865 9.45573 106.906 9.75781C106.948 10.0599 107.026 10.3281 107.141 10.5625C107.26 10.7969 107.424 10.9818 107.633 11.1172C107.841 11.2526 108.112 11.3203 108.445 11.3203Z" fill="currentColor"/>
		<path d="M95.5625 8.78125V8.61719C95.5625 7.9974 95.651 7.42708 95.8281 6.90625C96.0052 6.38021 96.263 5.92448 96.6016 5.53906C96.9401 5.15365 97.3568 4.85417 97.8516 4.64062C98.3464 4.42188 98.9141 4.3125 99.5547 4.3125C100.195 4.3125 100.766 4.42188 101.266 4.64062C101.766 4.85417 102.185 5.15365 102.523 5.53906C102.867 5.92448 103.128 6.38021 103.305 6.90625C103.482 7.42708 103.57 7.9974 103.57 8.61719V8.78125C103.57 9.39583 103.482 9.96615 103.305 10.4922C103.128 11.013 102.867 11.4688 102.523 11.8594C102.185 12.2448 101.768 12.5443 101.273 12.7578C100.779 12.9714 100.211 13.0781 99.5703 13.0781C98.9297 13.0781 98.3594 12.9714 97.8594 12.7578C97.3646 12.5443 96.9453 12.2448 96.6016 11.8594C96.263 11.4688 96.0052 11.013 95.8281 10.4922C95.651 9.96615 95.5625 9.39583 95.5625 8.78125ZM97.8125 8.61719V8.78125C97.8125 9.13542 97.8438 9.46615 97.9062 9.77344C97.9688 10.0807 98.0677 10.3516 98.2031 10.5859C98.3438 10.8151 98.526 10.9948 98.75 11.125C98.974 11.2552 99.2474 11.3203 99.5703 11.3203C99.8828 11.3203 100.151 11.2552 100.375 11.125C100.599 10.9948 100.779 10.8151 100.914 10.5859C101.049 10.3516 101.148 10.0807 101.211 9.77344C101.279 9.46615 101.312 9.13542 101.312 8.78125V8.61719C101.312 8.27344 101.279 7.95052 101.211 7.64844C101.148 7.34115 101.047 7.07031 100.906 6.83594C100.771 6.59635 100.591 6.40885 100.367 6.27344C100.143 6.13802 99.8724 6.07031 99.5547 6.07031C99.237 6.07031 98.9661 6.13802 98.7422 6.27344C98.5234 6.40885 98.3438 6.59635 98.2031 6.83594C98.0677 7.07031 97.9688 7.34115 97.9062 7.64844C97.8438 7.95052 97.8125 8.27344 97.8125 8.61719Z" fill="currentColor"/>
		<path d="M92.5469 6.3125V12.9219H90.2969V4.46875H92.4141L92.5469 6.3125ZM95.0938 4.41406L95.0547 6.5C94.9453 6.48438 94.8125 6.47135 94.6562 6.46094C94.5052 6.44531 94.3672 6.4375 94.2422 6.4375C93.9245 6.4375 93.6484 6.47917 93.4141 6.5625C93.1849 6.64062 92.9922 6.75781 92.8359 6.91406C92.6849 7.07031 92.5703 7.26042 92.4922 7.48438C92.4193 7.70833 92.3776 7.96354 92.3672 8.25L91.9141 8.10938C91.9141 7.5625 91.9688 7.0599 92.0781 6.60156C92.1875 6.13802 92.3464 5.73438 92.5547 5.39062C92.7682 5.04688 93.0286 4.78125 93.3359 4.59375C93.6432 4.40625 93.9948 4.3125 94.3906 4.3125C94.5156 4.3125 94.6432 4.32292 94.7734 4.34375C94.9036 4.35938 95.0104 4.38281 95.0938 4.41406Z" fill="currentColor"/>
		<path d="M86.5625 9.14844H88.8984C88.8516 9.91406 88.6406 10.5938 88.2656 11.1875C87.8958 11.7812 87.3776 12.2448 86.7109 12.5781C86.0495 12.9115 85.2526 13.0781 84.3203 13.0781C83.5911 13.0781 82.9375 12.9531 82.3594 12.7031C81.7812 12.4479 81.2865 12.0833 80.875 11.6094C80.4688 11.1354 80.1589 10.5625 79.9453 9.89062C79.7318 9.21875 79.625 8.46615 79.625 7.63281V6.84375C79.625 6.01042 79.7344 5.25781 79.9531 4.58594C80.1771 3.90885 80.4948 3.33333 80.9062 2.85938C81.3229 2.38542 81.8203 2.02083 82.3984 1.76562C82.9766 1.51042 83.6224 1.38281 84.3359 1.38281C85.2839 1.38281 86.0833 1.55469 86.7344 1.89844C87.3906 2.24219 87.8984 2.71615 88.2578 3.32031C88.6224 3.92448 88.8411 4.61198 88.9141 5.38281H86.5703C86.5443 4.92448 86.4531 4.53646 86.2969 4.21875C86.1406 3.89583 85.9036 3.65365 85.5859 3.49219C85.2734 3.32552 84.8568 3.24219 84.3359 3.24219C83.9453 3.24219 83.6042 3.3151 83.3125 3.46094C83.0208 3.60677 82.776 3.82812 82.5781 4.125C82.3802 4.42188 82.2318 4.79688 82.1328 5.25C82.0391 5.69792 81.9922 6.22396 81.9922 6.82812V7.63281C81.9922 8.22135 82.0365 8.73958 82.125 9.1875C82.2135 9.63021 82.349 10.0052 82.5312 10.3125C82.7188 10.6146 82.9583 10.8438 83.25 11C83.5469 11.151 83.9036 11.2266 84.3203 11.2266C84.8099 11.2266 85.2135 11.1484 85.5312 10.9922C85.849 10.8359 86.0911 10.6042 86.2578 10.2969C86.4297 9.98958 86.5312 9.60677 86.5625 9.14844Z" fill="currentColor"/>
		<path d="M75.0781 13.0781C74.4219 13.0781 73.8333 12.974 73.3125 12.7656C72.7917 12.5521 72.349 12.2578 71.9844 11.8828C71.625 11.5078 71.349 11.0729 71.1562 10.5781C70.9635 10.0781 70.8672 9.54688 70.8672 8.98438V8.67188C70.8672 8.03125 70.9583 7.44531 71.1406 6.91406C71.3229 6.38281 71.5833 5.92188 71.9219 5.53125C72.2656 5.14062 72.6823 4.84115 73.1719 4.63281C73.6615 4.41927 74.2135 4.3125 74.8281 4.3125C75.4271 4.3125 75.9583 4.41146 76.4219 4.60938C76.8854 4.80729 77.2734 5.08854 77.5859 5.45312C77.9036 5.81771 78.1432 6.25521 78.3047 6.76562C78.4661 7.27083 78.5469 7.83333 78.5469 8.45312V9.39062H71.8281V7.89062H76.3359V7.71875C76.3359 7.40625 76.2786 7.1276 76.1641 6.88281C76.0547 6.63281 75.888 6.4349 75.6641 6.28906C75.4401 6.14323 75.1536 6.07031 74.8047 6.07031C74.5078 6.07031 74.2526 6.13542 74.0391 6.26562C73.8255 6.39583 73.651 6.57812 73.5156 6.8125C73.3854 7.04688 73.2865 7.32292 73.2188 7.64062C73.1562 7.95312 73.125 8.29688 73.125 8.67188V8.98438C73.125 9.32292 73.1719 9.63542 73.2656 9.92188C73.3646 10.2083 73.5026 10.4557 73.6797 10.6641C73.862 10.8724 74.0807 11.0339 74.3359 11.1484C74.5964 11.263 74.8906 11.3203 75.2188 11.3203C75.625 11.3203 76.0026 11.2422 76.3516 11.0859C76.7057 10.9245 77.0104 10.6823 77.2656 10.3594L78.3594 11.5469C78.1823 11.8021 77.9401 12.0469 77.6328 12.2812C77.3307 12.5156 76.9661 12.7083 76.5391 12.8594C76.112 13.0052 75.625 13.0781 75.0781 13.0781Z" fill="currentColor"/>
		<path d="M67.1641 11.0781V0.921875H69.4297V12.9219H67.3906L67.1641 11.0781ZM61.8203 8.79688V8.63281C61.8203 7.98698 61.8932 7.40104 62.0391 6.875C62.1849 6.34375 62.3984 5.88802 62.6797 5.50781C62.9609 5.1276 63.3073 4.83333 63.7188 4.625C64.1302 4.41667 64.599 4.3125 65.125 4.3125C65.6198 4.3125 66.0521 4.41667 66.4219 4.625C66.7969 4.83333 67.1146 5.13021 67.375 5.51562C67.6406 5.89583 67.8542 6.34635 68.0156 6.86719C68.1771 7.38281 68.2943 7.94792 68.3672 8.5625V8.92188C68.2943 9.51042 68.1771 10.0573 68.0156 10.5625C67.8542 11.0677 67.6406 11.5104 67.375 11.8906C67.1146 12.2656 66.7969 12.5573 66.4219 12.7656C66.0469 12.974 65.6094 13.0781 65.1094 13.0781C64.5833 13.0781 64.1146 12.9714 63.7031 12.7578C63.2969 12.5443 62.9531 12.2448 62.6719 11.8594C62.3958 11.474 62.1849 11.0208 62.0391 10.5C61.8932 9.97917 61.8203 9.41146 61.8203 8.79688ZM64.0703 8.63281V8.79688C64.0703 9.14583 64.0964 9.47135 64.1484 9.77344C64.2057 10.0755 64.2969 10.3438 64.4219 10.5781C64.5521 10.8073 64.7188 10.987 64.9219 11.1172C65.1302 11.2422 65.3828 11.3047 65.6797 11.3047C66.0651 11.3047 66.3828 11.2188 66.6328 11.0469C66.8828 10.8698 67.0729 10.6276 67.2031 10.3203C67.3385 10.013 67.4167 9.65885 67.4375 9.25781V8.23438C67.4219 7.90625 67.375 7.61198 67.2969 7.35156C67.224 7.08594 67.1146 6.85938 66.9688 6.67188C66.8281 6.48438 66.651 6.33854 66.4375 6.23438C66.2292 6.13021 65.9818 6.07812 65.6953 6.07812C65.4036 6.07812 65.1536 6.14583 64.9453 6.28125C64.737 6.41146 64.5677 6.59115 64.4375 6.82031C64.3125 7.04948 64.2188 7.32031 64.1562 7.63281C64.099 7.9401 64.0703 8.27344 64.0703 8.63281Z" fill="currentColor"/>
		<path d="M58.5234 10.5859C58.5234 10.4245 58.4766 10.2786 58.3828 10.1484C58.2891 10.0182 58.1146 9.89844 57.8594 9.78906C57.6094 9.67448 57.2474 9.57031 56.7734 9.47656C56.3464 9.38281 55.9479 9.26562 55.5781 9.125C55.2135 8.97917 54.8958 8.80469 54.625 8.60156C54.3594 8.39844 54.151 8.15885 54 7.88281C53.849 7.60156 53.7734 7.28125 53.7734 6.92188C53.7734 6.56771 53.849 6.23438 54 5.92188C54.1562 5.60938 54.3776 5.33333 54.6641 5.09375C54.9557 4.84896 55.3099 4.65885 55.7266 4.52344C56.1484 4.38281 56.6224 4.3125 57.1484 4.3125C57.8828 4.3125 58.513 4.42969 59.0391 4.66406C59.5703 4.89844 59.9766 5.22135 60.2578 5.63281C60.5443 6.03906 60.6875 6.5026 60.6875 7.02344H58.4375C58.4375 6.80469 58.3906 6.60938 58.2969 6.4375C58.2083 6.26042 58.0677 6.1224 57.875 6.02344C57.6875 5.91927 57.4427 5.86719 57.1406 5.86719C56.8906 5.86719 56.6745 5.91146 56.4922 6C56.3099 6.08333 56.1693 6.19792 56.0703 6.34375C55.9766 6.48438 55.9297 6.64062 55.9297 6.8125C55.9297 6.94271 55.9557 7.0599 56.0078 7.16406C56.0651 7.26302 56.1562 7.35417 56.2812 7.4375C56.4062 7.52083 56.5677 7.59896 56.7656 7.67188C56.9688 7.73958 57.2188 7.80208 57.5156 7.85938C58.125 7.98438 58.6693 8.14844 59.1484 8.35156C59.6276 8.54948 60.0078 8.82031 60.2891 9.16406C60.5703 9.5026 60.7109 9.94792 60.7109 10.5C60.7109 10.875 60.6276 11.2188 60.4609 11.5312C60.2943 11.8438 60.0547 12.1172 59.7422 12.3516C59.4297 12.5807 59.0547 12.7604 58.6172 12.8906C58.1849 13.0156 57.6979 13.0781 57.1562 13.0781C56.3698 13.0781 55.7031 12.9375 55.1562 12.6562C54.6146 12.375 54.2031 12.0182 53.9219 11.5859C53.6458 11.1484 53.5078 10.7005 53.5078 10.2422H55.6406C55.651 10.5495 55.7292 10.7969 55.875 10.9844C56.026 11.1719 56.2161 11.3073 56.4453 11.3906C56.6797 11.474 56.9323 11.5156 57.2031 11.5156C57.4948 11.5156 57.737 11.4766 57.9297 11.3984C58.1224 11.3151 58.2682 11.2057 58.3672 11.0703C58.4714 10.9297 58.5234 10.7682 58.5234 10.5859Z" fill="currentColor"/>
		<path d="M49.9531 11.0156V7.25C49.9531 6.97917 49.9089 6.7474 49.8203 6.55469C49.7318 6.35677 49.5938 6.20312 49.4062 6.09375C49.224 5.98438 48.987 5.92969 48.6953 5.92969C48.4453 5.92969 48.2292 5.97396 48.0469 6.0625C47.8646 6.14583 47.724 6.26823 47.625 6.42969C47.526 6.58594 47.4766 6.77083 47.4766 6.98438H45.2266C45.2266 6.625 45.3099 6.28385 45.4766 5.96094C45.6432 5.63802 45.8854 5.35417 46.2031 5.10938C46.5208 4.85938 46.8984 4.66406 47.3359 4.52344C47.7786 4.38281 48.2734 4.3125 48.8203 4.3125C49.4766 4.3125 50.0599 4.42188 50.5703 4.64062C51.0807 4.85938 51.4818 5.1875 51.7734 5.625C52.0703 6.0625 52.2188 6.60938 52.2188 7.26562V10.8828C52.2188 11.3464 52.2474 11.7266 52.3047 12.0234C52.362 12.3151 52.4453 12.5703 52.5547 12.7891V12.9219H50.2812C50.1719 12.6927 50.0885 12.4062 50.0312 12.0625C49.9792 11.7135 49.9531 11.3646 49.9531 11.0156ZM50.25 7.77344L50.2656 9.04688H49.0078C48.7109 9.04688 48.4531 9.08073 48.2344 9.14844C48.0156 9.21615 47.8359 9.3125 47.6953 9.4375C47.5547 9.55729 47.4505 9.69792 47.3828 9.85938C47.3203 10.0208 47.2891 10.1979 47.2891 10.3906C47.2891 10.5833 47.3333 10.7578 47.4219 10.9141C47.5104 11.0651 47.638 11.1849 47.8047 11.2734C47.9714 11.3568 48.1667 11.3984 48.3906 11.3984C48.7292 11.3984 49.0234 11.3307 49.2734 11.1953C49.5234 11.0599 49.7161 10.8932 49.8516 10.6953C49.9922 10.4974 50.0651 10.3099 50.0703 10.1328L50.6641 11.0859C50.5807 11.2995 50.4661 11.5208 50.3203 11.75C50.1797 11.9792 50 12.1953 49.7812 12.3984C49.5625 12.5964 49.2995 12.7604 48.9922 12.8906C48.6849 13.0156 48.3203 13.0781 47.8984 13.0781C47.362 13.0781 46.875 12.9714 46.4375 12.7578C46.0052 12.5391 45.6615 12.2396 45.4062 11.8594C45.1562 11.474 45.0312 11.0365 45.0312 10.5469C45.0312 10.1042 45.1146 9.71094 45.2812 9.36719C45.4479 9.02344 45.6927 8.73438 46.0156 8.5C46.3438 8.26042 46.7526 8.08073 47.2422 7.96094C47.7318 7.83594 48.2995 7.77344 48.9453 7.77344H50.25Z" fill="currentColor"/>
		<path d="M44.1094 4.46875V6.0625H39.1875V4.46875H44.1094ZM40.4062 2.38281H42.6562V10.375C42.6562 10.6198 42.6875 10.8073 42.75 10.9375C42.8177 11.0677 42.9167 11.1589 43.0469 11.2109C43.1771 11.2578 43.3411 11.2812 43.5391 11.2812C43.6797 11.2812 43.8047 11.276 43.9141 11.2656C44.0286 11.25 44.125 11.2344 44.2031 11.2188L44.2109 12.875C44.0182 12.9375 43.8099 12.987 43.5859 13.0234C43.362 13.0599 43.1146 13.0781 42.8438 13.0781C42.349 13.0781 41.9167 12.9974 41.5469 12.8359C41.1823 12.6693 40.901 12.4036 40.7031 12.0391C40.5052 11.6745 40.4062 11.1953 40.4062 10.6016V2.38281Z" fill="currentColor"/>
		<path d="M38.1094 4.46875V12.9219H35.8516V4.46875H38.1094ZM35.7109 2.26562C35.7109 1.9375 35.8255 1.66667 36.0547 1.45312C36.2839 1.23958 36.5911 1.13281 36.9766 1.13281C37.3568 1.13281 37.6615 1.23958 37.8906 1.45312C38.125 1.66667 38.2422 1.9375 38.2422 2.26562C38.2422 2.59375 38.125 2.86458 37.8906 3.07812C37.6615 3.29167 37.3568 3.39844 36.9766 3.39844C36.5911 3.39844 36.2839 3.29167 36.0547 3.07812C35.8255 2.86458 35.7109 2.59375 35.7109 2.26562Z" fill="currentColor"/>
		<path d="M30.9844 13.0781C30.3281 13.0781 29.7396 12.974 29.2188 12.7656C28.6979 12.5521 28.2552 12.2578 27.8906 11.8828C27.5312 11.5078 27.2552 11.0729 27.0625 10.5781C26.8698 10.0781 26.7734 9.54688 26.7734 8.98438V8.67188C26.7734 8.03125 26.8646 7.44531 27.0469 6.91406C27.2292 6.38281 27.4896 5.92188 27.8281 5.53125C28.1719 5.14062 28.5885 4.84115 29.0781 4.63281C29.5677 4.41927 30.1198 4.3125 30.7344 4.3125C31.3333 4.3125 31.8646 4.41146 32.3281 4.60938C32.7917 4.80729 33.1797 5.08854 33.4922 5.45312C33.8099 5.81771 34.0495 6.25521 34.2109 6.76562C34.3724 7.27083 34.4531 7.83333 34.4531 8.45312V9.39062H27.7344V7.89062H32.2422V7.71875C32.2422 7.40625 32.1849 7.1276 32.0703 6.88281C31.9609 6.63281 31.7943 6.4349 31.5703 6.28906C31.3464 6.14323 31.0599 6.07031 30.7109 6.07031C30.4141 6.07031 30.1589 6.13542 29.9453 6.26562C29.7318 6.39583 29.5573 6.57812 29.4219 6.8125C29.2917 7.04688 29.1927 7.32292 29.125 7.64062C29.0625 7.95312 29.0312 8.29688 29.0312 8.67188V8.98438C29.0312 9.32292 29.0781 9.63542 29.1719 9.92188C29.2708 10.2083 29.4089 10.4557 29.5859 10.6641C29.7682 10.8724 29.987 11.0339 30.2422 11.1484C30.5026 11.263 30.7969 11.3203 31.125 11.3203C31.5312 11.3203 31.9089 11.2422 32.2578 11.0859C32.612 10.9245 32.9167 10.6823 33.1719 10.3594L34.2656 11.5469C34.0885 11.8021 33.8464 12.0469 33.5391 12.2812C33.237 12.5156 32.8724 12.7083 32.4453 12.8594C32.0182 13.0052 31.5312 13.0781 30.9844 13.0781Z" fill="currentColor"/>
		<path d="M22.2422 11.3203C22.5182 11.3203 22.763 11.2682 22.9766 11.1641C23.1901 11.0547 23.3568 10.9036 23.4766 10.7109C23.6016 10.513 23.6667 10.2812 23.6719 10.0156H25.7891C25.7839 10.6094 25.625 11.138 25.3125 11.6016C25 12.0599 24.5807 12.4219 24.0547 12.6875C23.5286 12.9479 22.9401 13.0781 22.2891 13.0781C21.6328 13.0781 21.0599 12.9688 20.5703 12.75C20.0859 12.5312 19.6823 12.2292 19.3594 11.8438C19.0365 11.4531 18.7943 11 18.6328 10.4844C18.4714 9.96354 18.3906 9.40625 18.3906 8.8125V8.58594C18.3906 7.98698 18.4714 7.42969 18.6328 6.91406C18.7943 6.39323 19.0365 5.9401 19.3594 5.55469C19.6823 5.16406 20.0859 4.85938 20.5703 4.64062C21.0547 4.42188 21.6224 4.3125 22.2734 4.3125C22.9661 4.3125 23.5729 4.44531 24.0938 4.71094C24.6198 4.97656 25.0312 5.35677 25.3281 5.85156C25.6302 6.34115 25.7839 6.92188 25.7891 7.59375H23.6719C23.6667 7.3125 23.6068 7.05729 23.4922 6.82812C23.3828 6.59896 23.2214 6.41667 23.0078 6.28125C22.7995 6.14062 22.5417 6.07031 22.2344 6.07031C21.9062 6.07031 21.638 6.14062 21.4297 6.28125C21.2214 6.41667 21.0599 6.60417 20.9453 6.84375C20.8307 7.07812 20.75 7.34635 20.7031 7.64844C20.6615 7.94531 20.6406 8.25781 20.6406 8.58594V8.8125C20.6406 9.14062 20.6615 9.45573 20.7031 9.75781C20.7448 10.0599 20.8229 10.3281 20.9375 10.5625C21.0573 10.7969 21.2214 10.9818 21.4297 11.1172C21.638 11.2526 21.9089 11.3203 22.2422 11.3203Z" fill="currentColor"/>
		<path d="M14 13.0781C13.3438 13.0781 12.7552 12.974 12.2344 12.7656C11.7135 12.5521 11.2708 12.2578 10.9062 11.8828C10.5469 11.5078 10.2708 11.0729 10.0781 10.5781C9.88542 10.0781 9.78906 9.54688 9.78906 8.98438V8.67188C9.78906 8.03125 9.88021 7.44531 10.0625 6.91406C10.2448 6.38281 10.5052 5.92188 10.8438 5.53125C11.1875 5.14062 11.6042 4.84115 12.0938 4.63281C12.5833 4.41927 13.1354 4.3125 13.75 4.3125C14.349 4.3125 14.8802 4.41146 15.3438 4.60938C15.8073 4.80729 16.1953 5.08854 16.5078 5.45312C16.8255 5.81771 17.0651 6.25521 17.2266 6.76562C17.388 7.27083 17.4688 7.83333 17.4688 8.45312V9.39062H10.75V7.89062H15.2578V7.71875C15.2578 7.40625 15.2005 7.1276 15.0859 6.88281C14.9766 6.63281 14.8099 6.4349 14.5859 6.28906C14.362 6.14323 14.0755 6.07031 13.7266 6.07031C13.4297 6.07031 13.1745 6.13542 12.9609 6.26562C12.7474 6.39583 12.5729 6.57812 12.4375 6.8125C12.3073 7.04688 12.2083 7.32292 12.1406 7.64062C12.0781 7.95312 12.0469 8.29688 12.0469 8.67188V8.98438C12.0469 9.32292 12.0938 9.63542 12.1875 9.92188C12.2865 10.2083 12.4245 10.4557 12.6016 10.6641C12.7839 10.8724 13.0026 11.0339 13.2578 11.1484C13.5182 11.263 13.8125 11.3203 14.1406 11.3203C14.5469 11.3203 14.9245 11.2422 15.2734 11.0859C15.6276 10.9245 15.9323 10.6823 16.1875 10.3594L17.2812 11.5469C17.1042 11.8021 16.862 12.0469 16.5547 12.2812C16.2526 12.5156 15.888 12.7083 15.4609 12.8594C15.0339 13.0052 14.5469 13.0781 14 13.0781Z" fill="currentColor"/>
		<path d="M0 1.54688H4.24219C5.11198 1.54688 5.85938 1.67708 6.48438 1.9375C7.11458 2.19792 7.59896 2.58333 7.9375 3.09375C8.27604 3.60417 8.44531 4.23177 8.44531 4.97656C8.44531 5.58594 8.34115 6.10938 8.13281 6.54688C7.92969 6.97917 7.64062 7.34115 7.26562 7.63281C6.89583 7.91927 6.46094 8.14844 5.96094 8.32031L5.21875 8.71094H1.53125L1.51562 6.88281H4.25781C4.66927 6.88281 5.01042 6.8099 5.28125 6.66406C5.55208 6.51823 5.75521 6.3151 5.89062 6.05469C6.03125 5.79427 6.10156 5.49219 6.10156 5.14844C6.10156 4.78385 6.03385 4.46875 5.89844 4.20312C5.76302 3.9375 5.55729 3.73438 5.28125 3.59375C5.00521 3.45312 4.65885 3.38281 4.24219 3.38281H2.34375V12.9219H0V1.54688ZM6.35938 12.9219L3.76562 7.85156L6.24219 7.83594L8.86719 12.8125V12.9219H6.35938Z" fill="currentColor"/>
	</symbol>
</svg>
