<svg id="short-logo" width="100%" height="36" viewBox="0 0 32 36" fill="none" xmlns="http://www.w3.org/2000/svg">
	<path d="M31.1893 24.2193C31.7298 24.2193 32 24.9389 32 26.3783C32 27.1605 31.6662 28.1149 30.9985 29.2413C30.3308 30.3365 29.4565 31.3534 28.3756 32.2921C27.3264 33.1995 26.15 33.9505 24.8465 34.545C23.543 35.1395 22.303 35.4368 21.1267 35.4368C19.9503 35.4368 19.0283 35.2177 18.3607 34.7797C17.693 34.3416 17.1684 33.7471 16.7869 32.9961C16.2464 31.9323 15.8013 29.9141 15.4516 26.9415C15.1018 23.9377 14.7521 21.8412 14.4024 20.6522C13.5758 20.4957 12.8445 20.1828 12.2086 19.7135C11.6046 19.2128 11.3025 18.6183 11.3025 17.93C11.3025 17.2103 11.6205 16.694 12.2563 16.3811C12.924 16.0682 13.6711 15.9117 14.4978 15.9117C15.3562 15.9117 16.1192 16.1151 16.7869 16.5219C17.6771 15.8022 18.3924 14.9574 18.9329 13.9874C19.5052 12.9861 19.7914 11.6563 19.7914 9.99791C19.7914 8.30824 19.2191 6.96276 18.0745 5.96148C16.93 4.9602 15.2449 4.45956 13.0194 4.45956C10.8256 4.45956 9.14059 4.63165 7.96423 4.97584C6.78788 5.32003 5.77049 5.69551 4.91207 6.10228C4.08544 6.50906 3.3383 6.88454 2.67064 7.22873C2.03477 7.57292 1.4307 7.74502 0.85842 7.74502C0.28614 7.74502 0 7.57292 0 7.22873C0 6.85325 0.302037 6.25874 0.90611 5.44519C1.51018 4.63165 2.4004 3.8181 3.57675 3.00456C6.53353 0.970704 9.87183 -0.0305786 13.5917 0.000711122C17.3115 0.000711122 20.3795 0.689094 22.7958 2.06586C25.6254 3.69295 27.0402 6.13358 27.0402 9.38775C27.072 12.0787 26.3567 14.3159 24.8942 16.0995C23.4317 17.883 21.6195 19.1659 19.4575 19.9482C19.9344 20.9807 20.3159 22.0915 20.6021 23.2806C20.92 24.4696 21.2221 25.5647 21.5082 26.566C21.7943 27.5673 22.1123 28.3965 22.462 29.0536C22.8435 29.7107 23.2886 30.0392 23.7973 30.0392C24.3378 30.0392 24.9737 29.742 25.7049 29.1475C26.468 28.5217 27.2151 27.8489 27.9464 27.1292C28.6776 26.4096 29.3294 25.7525 29.9016 25.158C30.5057 24.5322 30.9349 24.2193 31.1893 24.2193ZM10.4441 7.3226C10.8574 7.3226 11.0641 7.85453 11.0641 8.9184C11.0641 9.98226 11.0005 10.9835 10.8733 11.9222C10.5872 13.7371 10.2216 15.4267 9.77645 16.9912C8.63189 21.2467 8.05961 23.7343 8.05961 24.4539V31.3534C8.05961 33.0431 7.40785 34.2008 6.10432 34.8266C5.50025 35.1082 4.91207 35.3742 4.33979 35.6245C3.7993 35.8748 3.17933 36 2.47988 36C1.14456 36 0.4769 34.4981 0.4769 31.4942C0.4769 28.4591 1.19225 24.6417 2.62295 20.042C4.05365 15.4424 5.54794 11.9379 7.10581 9.52855C7.42375 9.0592 7.88475 8.57421 8.48882 8.07356C9.0929 7.57292 9.74466 7.3226 10.4441 7.3226Z" fill="currentColor"/>
</svg>
