<svg xmlns="http://www.w3.org/2000/svg" xmlns:xlink="http://www.w3.org/1999/xlink" style="display: none;">
	<symbol id="rdc-logo" width="100%" height="13" viewBox="0 0 186 13" fill="none" xmlns="http://www.w3.org/2000/svg">
		<path d="M0.390625 1.46875H4.63281C5.5026 1.46875 6.25 1.59896 6.875 1.85938C7.50521 2.11979 7.98958 2.50521 8.32812 3.01562C8.66667 3.52604 8.83594 4.15365 8.83594 4.89844C8.83594 5.50781 8.73177 6.03125 8.52344 6.46875C8.32031 6.90104 8.03125 7.26302 7.65625 7.55469C7.28646 7.84115 6.85156 8.07031 6.35156 8.24219L5.60938 8.63281H1.92188L1.90625 6.80469H4.64844C5.0599 6.80469 5.40104 6.73177 5.67188 6.58594C5.94271 6.4401 6.14583 6.23698 6.28125 5.97656C6.42188 5.71615 6.49219 5.41406 6.49219 5.07031C6.49219 4.70573 6.42448 4.39062 6.28906 4.125C6.15365 3.85938 5.94792 3.65625 5.67188 3.51562C5.39583 3.375 5.04948 3.30469 4.63281 3.30469H2.73438V12.8438H0.390625V1.46875ZM6.75 12.8438L4.15625 7.77344L6.63281 7.75781L9.25781 12.7344V12.8438H6.75Z" fill="currentColor"/>
		<path d="M14.3906 13C13.7344 13 13.1458 12.8958 12.625 12.6875C12.1042 12.474 11.6615 12.1797 11.2969 11.8047C10.9375 11.4297 10.6615 10.9948 10.4688 10.5C10.276 10 10.1797 9.46875 10.1797 8.90625V8.59375C10.1797 7.95312 10.2708 7.36719 10.4531 6.83594C10.6354 6.30469 10.8958 5.84375 11.2344 5.45312C11.5781 5.0625 11.9948 4.76302 12.4844 4.55469C12.974 4.34115 13.526 4.23438 14.1406 4.23438C14.7396 4.23438 15.2708 4.33333 15.7344 4.53125C16.1979 4.72917 16.5859 5.01042 16.8984 5.375C17.2161 5.73958 17.4557 6.17708 17.6172 6.6875C17.7786 7.19271 17.8594 7.75521 17.8594 8.375V9.3125H11.1406V7.8125H15.6484V7.64062C15.6484 7.32812 15.5911 7.04948 15.4766 6.80469C15.3672 6.55469 15.2005 6.35677 14.9766 6.21094C14.7526 6.0651 14.4661 5.99219 14.1172 5.99219C13.8203 5.99219 13.5651 6.05729 13.3516 6.1875C13.138 6.31771 12.9635 6.5 12.8281 6.73438C12.6979 6.96875 12.599 7.24479 12.5312 7.5625C12.4688 7.875 12.4375 8.21875 12.4375 8.59375V8.90625C12.4375 9.24479 12.4844 9.55729 12.5781 9.84375C12.6771 10.1302 12.8151 10.3776 12.9922 10.5859C13.1745 10.7943 13.3932 10.9557 13.6484 11.0703C13.9089 11.1849 14.2031 11.2422 14.5312 11.2422C14.9375 11.2422 15.3151 11.1641 15.6641 11.0078C16.0182 10.8464 16.3229 10.6042 16.5781 10.2812L17.6719 11.4688C17.4948 11.724 17.2526 11.9688 16.9453 12.2031C16.6432 12.4375 16.2786 12.6302 15.8516 12.7812C15.4245 12.9271 14.9375 13 14.3906 13Z" fill="currentColor"/>
		<path d="M22.6328 11.2422C22.9089 11.2422 23.1536 11.1901 23.3672 11.0859C23.5807 10.9766 23.7474 10.8255 23.8672 10.6328C23.9922 10.4349 24.0573 10.2031 24.0625 9.9375H26.1797C26.1745 10.5312 26.0156 11.0599 25.7031 11.5234C25.3906 11.9818 24.9714 12.3438 24.4453 12.6094C23.9193 12.8698 23.3307 13 22.6797 13C22.0234 13 21.4505 12.8906 20.9609 12.6719C20.4766 12.4531 20.0729 12.151 19.75 11.7656C19.4271 11.375 19.1849 10.9219 19.0234 10.4062C18.862 9.88542 18.7812 9.32812 18.7812 8.73438V8.50781C18.7812 7.90885 18.862 7.35156 19.0234 6.83594C19.1849 6.3151 19.4271 5.86198 19.75 5.47656C20.0729 5.08594 20.4766 4.78125 20.9609 4.5625C21.4453 4.34375 22.013 4.23438 22.6641 4.23438C23.3568 4.23438 23.9635 4.36719 24.4844 4.63281C25.0104 4.89844 25.4219 5.27865 25.7188 5.77344C26.0208 6.26302 26.1745 6.84375 26.1797 7.51562H24.0625C24.0573 7.23438 23.9974 6.97917 23.8828 6.75C23.7734 6.52083 23.612 6.33854 23.3984 6.20312C23.1901 6.0625 22.9323 5.99219 22.625 5.99219C22.2969 5.99219 22.0286 6.0625 21.8203 6.20312C21.612 6.33854 21.4505 6.52604 21.3359 6.76562C21.2214 7 21.1406 7.26823 21.0938 7.57031C21.0521 7.86719 21.0312 8.17969 21.0312 8.50781V8.73438C21.0312 9.0625 21.0521 9.3776 21.0938 9.67969C21.1354 9.98177 21.2135 10.25 21.3281 10.4844C21.4479 10.7188 21.612 10.9036 21.8203 11.0391C22.0286 11.1745 22.2995 11.2422 22.6328 11.2422Z" fill="currentColor"/>
		<path d="M31.375 13C30.7188 13 30.1302 12.8958 29.6094 12.6875C29.0885 12.474 28.6458 12.1797 28.2812 11.8047C27.9219 11.4297 27.6458 10.9948 27.4531 10.5C27.2604 10 27.1641 9.46875 27.1641 8.90625V8.59375C27.1641 7.95312 27.2552 7.36719 27.4375 6.83594C27.6198 6.30469 27.8802 5.84375 28.2188 5.45312C28.5625 5.0625 28.9792 4.76302 29.4688 4.55469C29.9583 4.34115 30.5104 4.23438 31.125 4.23438C31.724 4.23438 32.2552 4.33333 32.7188 4.53125C33.1823 4.72917 33.5703 5.01042 33.8828 5.375C34.2005 5.73958 34.4401 6.17708 34.6016 6.6875C34.763 7.19271 34.8438 7.75521 34.8438 8.375V9.3125H28.125V7.8125H32.6328V7.64062C32.6328 7.32812 32.5755 7.04948 32.4609 6.80469C32.3516 6.55469 32.1849 6.35677 31.9609 6.21094C31.737 6.0651 31.4505 5.99219 31.1016 5.99219C30.8047 5.99219 30.5495 6.05729 30.3359 6.1875C30.1224 6.31771 29.9479 6.5 29.8125 6.73438C29.6823 6.96875 29.5833 7.24479 29.5156 7.5625C29.4531 7.875 29.4219 8.21875 29.4219 8.59375V8.90625C29.4219 9.24479 29.4688 9.55729 29.5625 9.84375C29.6615 10.1302 29.7995 10.3776 29.9766 10.5859C30.1589 10.7943 30.3776 10.9557 30.6328 11.0703C30.8932 11.1849 31.1875 11.2422 31.5156 11.2422C31.9219 11.2422 32.2995 11.1641 32.6484 11.0078C33.0026 10.8464 33.3073 10.6042 33.5625 10.2812L34.6562 11.4688C34.4792 11.724 34.237 11.9688 33.9297 12.2031C33.6276 12.4375 33.263 12.6302 32.8359 12.7812C32.4089 12.9271 31.9219 13 31.375 13Z" fill="currentColor"/>
		<path d="M38.5 4.39062V12.8438H36.2422V4.39062H38.5ZM36.1016 2.1875C36.1016 1.85938 36.2161 1.58854 36.4453 1.375C36.6745 1.16146 36.9818 1.05469 37.3672 1.05469C37.7474 1.05469 38.0521 1.16146 38.2812 1.375C38.5156 1.58854 38.6328 1.85938 38.6328 2.1875C38.6328 2.51562 38.5156 2.78646 38.2812 3C38.0521 3.21354 37.7474 3.32031 37.3672 3.32031C36.9818 3.32031 36.6745 3.21354 36.4453 3C36.2161 2.78646 36.1016 2.51562 36.1016 2.1875Z" fill="currentColor"/>
		<path d="M44.5 4.39062V5.98438H39.5781V4.39062H44.5ZM40.7969 2.30469H43.0469V10.2969C43.0469 10.5417 43.0781 10.7292 43.1406 10.8594C43.2083 10.9896 43.3073 11.0807 43.4375 11.1328C43.5677 11.1797 43.7318 11.2031 43.9297 11.2031C44.0703 11.2031 44.1953 11.1979 44.3047 11.1875C44.4193 11.1719 44.5156 11.1562 44.5938 11.1406L44.6016 12.7969C44.4089 12.8594 44.2005 12.9089 43.9766 12.9453C43.7526 12.9818 43.5052 13 43.2344 13C42.7396 13 42.3073 12.9193 41.9375 12.7578C41.5729 12.5911 41.2917 12.3255 41.0938 11.9609C40.8958 11.5964 40.7969 11.1172 40.7969 10.5234V2.30469Z" fill="currentColor"/>
		<path d="M50.3438 10.9375V7.17188C50.3438 6.90104 50.2995 6.66927 50.2109 6.47656C50.1224 6.27865 49.9844 6.125 49.7969 6.01562C49.6146 5.90625 49.3776 5.85156 49.0859 5.85156C48.8359 5.85156 48.6198 5.89583 48.4375 5.98438C48.2552 6.06771 48.1146 6.1901 48.0156 6.35156C47.9167 6.50781 47.8672 6.69271 47.8672 6.90625H45.6172C45.6172 6.54688 45.7005 6.20573 45.8672 5.88281C46.0339 5.5599 46.276 5.27604 46.5938 5.03125C46.9115 4.78125 47.2891 4.58594 47.7266 4.44531C48.1693 4.30469 48.6641 4.23438 49.2109 4.23438C49.8672 4.23438 50.4505 4.34375 50.9609 4.5625C51.4714 4.78125 51.8724 5.10938 52.1641 5.54688C52.4609 5.98438 52.6094 6.53125 52.6094 7.1875V10.8047C52.6094 11.2682 52.638 11.6484 52.6953 11.9453C52.7526 12.237 52.8359 12.4922 52.9453 12.7109V12.8438H50.6719C50.5625 12.6146 50.4792 12.3281 50.4219 11.9844C50.3698 11.6354 50.3438 11.2865 50.3438 10.9375ZM50.6406 7.69531L50.6562 8.96875H49.3984C49.1016 8.96875 48.8438 9.0026 48.625 9.07031C48.4062 9.13802 48.2266 9.23438 48.0859 9.35938C47.9453 9.47917 47.8411 9.61979 47.7734 9.78125C47.7109 9.94271 47.6797 10.1198 47.6797 10.3125C47.6797 10.5052 47.724 10.6797 47.8125 10.8359C47.901 10.987 48.0286 11.1068 48.1953 11.1953C48.362 11.2786 48.5573 11.3203 48.7812 11.3203C49.1198 11.3203 49.4141 11.2526 49.6641 11.1172C49.9141 10.9818 50.1068 10.8151 50.2422 10.6172C50.3828 10.4193 50.4557 10.2318 50.4609 10.0547L51.0547 11.0078C50.9714 11.2214 50.8568 11.4427 50.7109 11.6719C50.5703 11.901 50.3906 12.1172 50.1719 12.3203C49.9531 12.5182 49.6901 12.6823 49.3828 12.8125C49.0755 12.9375 48.7109 13 48.2891 13C47.7526 13 47.2656 12.8932 46.8281 12.6797C46.3958 12.4609 46.0521 12.1615 45.7969 11.7812C45.5469 11.3958 45.4219 10.9583 45.4219 10.4688C45.4219 10.026 45.5052 9.63281 45.6719 9.28906C45.8385 8.94531 46.0833 8.65625 46.4062 8.42188C46.7344 8.18229 47.1432 8.0026 47.6328 7.88281C48.1224 7.75781 48.6901 7.69531 49.3359 7.69531H50.6406Z" fill="currentColor"/>
		<path d="M58.9141 10.5078C58.9141 10.3464 58.8672 10.2005 58.7734 10.0703C58.6797 9.9401 58.5052 9.82031 58.25 9.71094C58 9.59635 57.638 9.49219 57.1641 9.39844C56.737 9.30469 56.3385 9.1875 55.9688 9.04688C55.6042 8.90104 55.2865 8.72656 55.0156 8.52344C54.75 8.32031 54.5417 8.08073 54.3906 7.80469C54.2396 7.52344 54.1641 7.20312 54.1641 6.84375C54.1641 6.48958 54.2396 6.15625 54.3906 5.84375C54.5469 5.53125 54.7682 5.25521 55.0547 5.01562C55.3464 4.77083 55.7005 4.58073 56.1172 4.44531C56.5391 4.30469 57.013 4.23438 57.5391 4.23438C58.2734 4.23438 58.9036 4.35156 59.4297 4.58594C59.9609 4.82031 60.3672 5.14323 60.6484 5.55469C60.9349 5.96094 61.0781 6.42448 61.0781 6.94531H58.8281C58.8281 6.72656 58.7812 6.53125 58.6875 6.35938C58.599 6.18229 58.4583 6.04427 58.2656 5.94531C58.0781 5.84115 57.8333 5.78906 57.5312 5.78906C57.2812 5.78906 57.0651 5.83333 56.8828 5.92188C56.7005 6.00521 56.5599 6.11979 56.4609 6.26562C56.3672 6.40625 56.3203 6.5625 56.3203 6.73438C56.3203 6.86458 56.3464 6.98177 56.3984 7.08594C56.4557 7.1849 56.5469 7.27604 56.6719 7.35938C56.7969 7.44271 56.9583 7.52083 57.1562 7.59375C57.3594 7.66146 57.6094 7.72396 57.9062 7.78125C58.5156 7.90625 59.0599 8.07031 59.5391 8.27344C60.0182 8.47135 60.3984 8.74219 60.6797 9.08594C60.9609 9.42448 61.1016 9.86979 61.1016 10.4219C61.1016 10.7969 61.0182 11.1406 60.8516 11.4531C60.6849 11.7656 60.4453 12.0391 60.1328 12.2734C59.8203 12.5026 59.4453 12.6823 59.0078 12.8125C58.5755 12.9375 58.0885 13 57.5469 13C56.7604 13 56.0938 12.8594 55.5469 12.5781C55.0052 12.2969 54.5938 11.9401 54.3125 11.5078C54.0365 11.0703 53.8984 10.6224 53.8984 10.1641H56.0312C56.0417 10.4714 56.1198 10.7188 56.2656 10.9062C56.4167 11.0938 56.6068 11.2292 56.8359 11.3125C57.0703 11.3958 57.3229 11.4375 57.5938 11.4375C57.8854 11.4375 58.1276 11.3984 58.3203 11.3203C58.513 11.237 58.6589 11.1276 58.7578 10.9922C58.862 10.8516 58.9141 10.6901 58.9141 10.5078Z" fill="currentColor"/>
		<path d="M67.5547 11V0.84375H69.8203V12.8438H67.7812L67.5547 11ZM62.2109 8.71875V8.55469C62.2109 7.90885 62.2839 7.32292 62.4297 6.79688C62.5755 6.26562 62.7891 5.8099 63.0703 5.42969C63.3516 5.04948 63.6979 4.75521 64.1094 4.54688C64.5208 4.33854 64.9896 4.23438 65.5156 4.23438C66.0104 4.23438 66.4427 4.33854 66.8125 4.54688C67.1875 4.75521 67.5052 5.05208 67.7656 5.4375C68.0312 5.81771 68.2448 6.26823 68.4062 6.78906C68.5677 7.30469 68.6849 7.86979 68.7578 8.48438V8.84375C68.6849 9.43229 68.5677 9.97917 68.4062 10.4844C68.2448 10.9896 68.0312 11.4323 67.7656 11.8125C67.5052 12.1875 67.1875 12.4792 66.8125 12.6875C66.4375 12.8958 66 13 65.5 13C64.974 13 64.5052 12.8932 64.0938 12.6797C63.6875 12.4661 63.3438 12.1667 63.0625 11.7812C62.7865 11.3958 62.5755 10.9427 62.4297 10.4219C62.2839 9.90104 62.2109 9.33333 62.2109 8.71875ZM64.4609 8.55469V8.71875C64.4609 9.06771 64.487 9.39323 64.5391 9.69531C64.5964 9.9974 64.6875 10.2656 64.8125 10.5C64.9427 10.7292 65.1094 10.9089 65.3125 11.0391C65.5208 11.1641 65.7734 11.2266 66.0703 11.2266C66.4557 11.2266 66.7734 11.1406 67.0234 10.9688C67.2734 10.7917 67.4635 10.5495 67.5938 10.2422C67.7292 9.9349 67.8073 9.58073 67.8281 9.17969V8.15625C67.8125 7.82812 67.7656 7.53385 67.6875 7.27344C67.6146 7.00781 67.5052 6.78125 67.3594 6.59375C67.2188 6.40625 67.0417 6.26042 66.8281 6.15625C66.6198 6.05208 66.3724 6 66.0859 6C65.7943 6 65.5443 6.06771 65.3359 6.20312C65.1276 6.33333 64.9583 6.51302 64.8281 6.74219C64.7031 6.97135 64.6094 7.24219 64.5469 7.55469C64.4896 7.86198 64.4609 8.19531 64.4609 8.55469Z" fill="currentColor"/>
		<path d="M75.4688 13C74.8125 13 74.224 12.8958 73.7031 12.6875C73.1823 12.474 72.7396 12.1797 72.375 11.8047C72.0156 11.4297 71.7396 10.9948 71.5469 10.5C71.3542 10 71.2578 9.46875 71.2578 8.90625V8.59375C71.2578 7.95312 71.349 7.36719 71.5312 6.83594C71.7135 6.30469 71.974 5.84375 72.3125 5.45312C72.6562 5.0625 73.0729 4.76302 73.5625 4.55469C74.0521 4.34115 74.6042 4.23438 75.2188 4.23438C75.8177 4.23438 76.349 4.33333 76.8125 4.53125C77.276 4.72917 77.6641 5.01042 77.9766 5.375C78.2943 5.73958 78.5339 6.17708 78.6953 6.6875C78.8568 7.19271 78.9375 7.75521 78.9375 8.375V9.3125H72.2188V7.8125H76.7266V7.64062C76.7266 7.32812 76.6693 7.04948 76.5547 6.80469C76.4453 6.55469 76.2786 6.35677 76.0547 6.21094C75.8307 6.0651 75.5443 5.99219 75.1953 5.99219C74.8984 5.99219 74.6432 6.05729 74.4297 6.1875C74.2161 6.31771 74.0417 6.5 73.9062 6.73438C73.776 6.96875 73.6771 7.24479 73.6094 7.5625C73.5469 7.875 73.5156 8.21875 73.5156 8.59375V8.90625C73.5156 9.24479 73.5625 9.55729 73.6562 9.84375C73.7552 10.1302 73.8932 10.3776 74.0703 10.5859C74.2526 10.7943 74.4714 10.9557 74.7266 11.0703C74.987 11.1849 75.2812 11.2422 75.6094 11.2422C76.0156 11.2422 76.3932 11.1641 76.7422 11.0078C77.0964 10.8464 77.401 10.6042 77.6562 10.2812L78.75 11.4688C78.5729 11.724 78.3307 11.9688 78.0234 12.2031C77.7214 12.4375 77.3568 12.6302 76.9297 12.7812C76.5026 12.9271 76.0156 13 75.4688 13Z" fill="currentColor"/>
		<path d="M86.9531 9.07031H89.2891C89.2422 9.83594 89.0312 10.5156 88.6562 11.1094C88.2865 11.7031 87.7682 12.1667 87.1016 12.5C86.4401 12.8333 85.6432 13 84.7109 13C83.9818 13 83.3281 12.875 82.75 12.625C82.1719 12.3698 81.6771 12.0052 81.2656 11.5312C80.8594 11.0573 80.5495 10.4844 80.3359 9.8125C80.1224 9.14062 80.0156 8.38802 80.0156 7.55469V6.76562C80.0156 5.93229 80.125 5.17969 80.3438 4.50781C80.5677 3.83073 80.8854 3.25521 81.2969 2.78125C81.7135 2.30729 82.2109 1.94271 82.7891 1.6875C83.3672 1.43229 84.013 1.30469 84.7266 1.30469C85.6745 1.30469 86.474 1.47656 87.125 1.82031C87.7812 2.16406 88.2891 2.63802 88.6484 3.24219C89.013 3.84635 89.2318 4.53385 89.3047 5.30469H86.9609C86.9349 4.84635 86.8438 4.45833 86.6875 4.14062C86.5312 3.81771 86.2943 3.57552 85.9766 3.41406C85.6641 3.2474 85.2474 3.16406 84.7266 3.16406C84.3359 3.16406 83.9948 3.23698 83.7031 3.38281C83.4115 3.52865 83.1667 3.75 82.9688 4.04688C82.7708 4.34375 82.6224 4.71875 82.5234 5.17188C82.4297 5.61979 82.3828 6.14583 82.3828 6.75V7.55469C82.3828 8.14323 82.4271 8.66146 82.5156 9.10938C82.6042 9.55208 82.7396 9.92708 82.9219 10.2344C83.1094 10.5365 83.349 10.7656 83.6406 10.9219C83.9375 11.0729 84.2943 11.1484 84.7109 11.1484C85.2005 11.1484 85.6042 11.0703 85.9219 10.9141C86.2396 10.7578 86.4818 10.526 86.6484 10.2188C86.8203 9.91146 86.9219 9.52865 86.9531 9.07031Z" fill="currentColor"/>
		<path d="M92.9375 6.23438V12.8438H90.6875V4.39062H92.8047L92.9375 6.23438ZM95.4844 4.33594L95.4453 6.42188C95.3359 6.40625 95.2031 6.39323 95.0469 6.38281C94.8958 6.36719 94.7578 6.35938 94.6328 6.35938C94.3151 6.35938 94.0391 6.40104 93.8047 6.48438C93.5755 6.5625 93.3828 6.67969 93.2266 6.83594C93.0755 6.99219 92.9609 7.18229 92.8828 7.40625C92.8099 7.63021 92.7682 7.88542 92.7578 8.17188L92.3047 8.03125C92.3047 7.48438 92.3594 6.98177 92.4688 6.52344C92.5781 6.0599 92.737 5.65625 92.9453 5.3125C93.1589 4.96875 93.4193 4.70312 93.7266 4.51562C94.0339 4.32812 94.3854 4.23438 94.7812 4.23438C94.9062 4.23438 95.0339 4.24479 95.1641 4.26562C95.2943 4.28125 95.401 4.30469 95.4844 4.33594Z" fill="currentColor"/>
		<path d="M95.9531 8.70312V8.53906C95.9531 7.91927 96.0417 7.34896 96.2188 6.82812C96.3958 6.30208 96.6536 5.84635 96.9922 5.46094C97.3307 5.07552 97.7474 4.77604 98.2422 4.5625C98.737 4.34375 99.3047 4.23438 99.9453 4.23438C100.586 4.23438 101.156 4.34375 101.656 4.5625C102.156 4.77604 102.576 5.07552 102.914 5.46094C103.258 5.84635 103.518 6.30208 103.695 6.82812C103.872 7.34896 103.961 7.91927 103.961 8.53906V8.70312C103.961 9.31771 103.872 9.88802 103.695 10.4141C103.518 10.9349 103.258 11.3906 102.914 11.7812C102.576 12.1667 102.159 12.4661 101.664 12.6797C101.169 12.8932 100.602 13 99.9609 13C99.3203 13 98.75 12.8932 98.25 12.6797C97.7552 12.4661 97.3359 12.1667 96.9922 11.7812C96.6536 11.3906 96.3958 10.9349 96.2188 10.4141C96.0417 9.88802 95.9531 9.31771 95.9531 8.70312ZM98.2031 8.53906V8.70312C98.2031 9.05729 98.2344 9.38802 98.2969 9.69531C98.3594 10.0026 98.4583 10.2734 98.5938 10.5078C98.7344 10.737 98.9167 10.9167 99.1406 11.0469C99.3646 11.1771 99.638 11.2422 99.9609 11.2422C100.273 11.2422 100.542 11.1771 100.766 11.0469C100.99 10.9167 101.169 10.737 101.305 10.5078C101.44 10.2734 101.539 10.0026 101.602 9.69531C101.669 9.38802 101.703 9.05729 101.703 8.70312V8.53906C101.703 8.19531 101.669 7.8724 101.602 7.57031C101.539 7.26302 101.438 6.99219 101.297 6.75781C101.161 6.51823 100.982 6.33073 100.758 6.19531C100.534 6.0599 100.263 5.99219 99.9453 5.99219C99.6276 5.99219 99.3568 6.0599 99.1328 6.19531C98.9141 6.33073 98.7344 6.51823 98.5938 6.75781C98.4583 6.99219 98.3594 7.26302 98.2969 7.57031C98.2344 7.8724 98.2031 8.19531 98.2031 8.53906Z" fill="currentColor"/>
		<path d="M108.836 11.2422C109.112 11.2422 109.357 11.1901 109.57 11.0859C109.784 10.9766 109.951 10.8255 110.07 10.6328C110.195 10.4349 110.26 10.2031 110.266 9.9375H112.383C112.378 10.5312 112.219 11.0599 111.906 11.5234C111.594 11.9818 111.174 12.3438 110.648 12.6094C110.122 12.8698 109.534 13 108.883 13C108.227 13 107.654 12.8906 107.164 12.6719C106.68 12.4531 106.276 12.151 105.953 11.7656C105.63 11.375 105.388 10.9219 105.227 10.4062C105.065 9.88542 104.984 9.32812 104.984 8.73438V8.50781C104.984 7.90885 105.065 7.35156 105.227 6.83594C105.388 6.3151 105.63 5.86198 105.953 5.47656C106.276 5.08594 106.68 4.78125 107.164 4.5625C107.648 4.34375 108.216 4.23438 108.867 4.23438C109.56 4.23438 110.167 4.36719 110.688 4.63281C111.214 4.89844 111.625 5.27865 111.922 5.77344C112.224 6.26302 112.378 6.84375 112.383 7.51562H110.266C110.26 7.23438 110.201 6.97917 110.086 6.75C109.977 6.52083 109.815 6.33854 109.602 6.20312C109.393 6.0625 109.135 5.99219 108.828 5.99219C108.5 5.99219 108.232 6.0625 108.023 6.20312C107.815 6.33854 107.654 6.52604 107.539 6.76562C107.424 7 107.344 7.26823 107.297 7.57031C107.255 7.86719 107.234 8.17969 107.234 8.50781V8.73438C107.234 9.0625 107.255 9.3776 107.297 9.67969C107.339 9.98177 107.417 10.25 107.531 10.4844C107.651 10.7188 107.815 10.9036 108.023 11.0391C108.232 11.1745 108.503 11.2422 108.836 11.2422Z" fill="currentColor"/>
		<path d="M115.883 0.84375V12.8438H113.633V0.84375H115.883ZM115.562 8.32031H114.945C114.951 7.73177 115.029 7.1901 115.18 6.69531C115.331 6.19531 115.547 5.76302 115.828 5.39844C116.109 5.02865 116.445 4.74219 116.836 4.53906C117.232 4.33594 117.669 4.23438 118.148 4.23438C118.565 4.23438 118.943 4.29427 119.281 4.41406C119.625 4.52865 119.919 4.71615 120.164 4.97656C120.414 5.23177 120.607 5.56771 120.742 5.98438C120.878 6.40104 120.945 6.90625 120.945 7.5V12.8438H118.68V7.48438C118.68 7.10938 118.625 6.8151 118.516 6.60156C118.411 6.38281 118.258 6.22917 118.055 6.14062C117.857 6.04688 117.612 6 117.32 6C116.997 6 116.721 6.0599 116.492 6.17969C116.268 6.29948 116.089 6.46615 115.953 6.67969C115.818 6.88802 115.719 7.13281 115.656 7.41406C115.594 7.69531 115.562 7.9974 115.562 8.32031Z" fill="currentColor"/>
		<path d="M126.547 13C125.891 13 125.302 12.8958 124.781 12.6875C124.26 12.474 123.818 12.1797 123.453 11.8047C123.094 11.4297 122.818 10.9948 122.625 10.5C122.432 10 122.336 9.46875 122.336 8.90625V8.59375C122.336 7.95312 122.427 7.36719 122.609 6.83594C122.792 6.30469 123.052 5.84375 123.391 5.45312C123.734 5.0625 124.151 4.76302 124.641 4.55469C125.13 4.34115 125.682 4.23438 126.297 4.23438C126.896 4.23438 127.427 4.33333 127.891 4.53125C128.354 4.72917 128.742 5.01042 129.055 5.375C129.372 5.73958 129.612 6.17708 129.773 6.6875C129.935 7.19271 130.016 7.75521 130.016 8.375V9.3125H123.297V7.8125H127.805V7.64062C127.805 7.32812 127.747 7.04948 127.633 6.80469C127.523 6.55469 127.357 6.35677 127.133 6.21094C126.909 6.0651 126.622 5.99219 126.273 5.99219C125.977 5.99219 125.721 6.05729 125.508 6.1875C125.294 6.31771 125.12 6.5 124.984 6.73438C124.854 6.96875 124.755 7.24479 124.688 7.5625C124.625 7.875 124.594 8.21875 124.594 8.59375V8.90625C124.594 9.24479 124.641 9.55729 124.734 9.84375C124.833 10.1302 124.971 10.3776 125.148 10.5859C125.331 10.7943 125.549 10.9557 125.805 11.0703C126.065 11.1849 126.359 11.2422 126.688 11.2422C127.094 11.2422 127.471 11.1641 127.82 11.0078C128.174 10.8464 128.479 10.6042 128.734 10.2812L129.828 11.4688C129.651 11.724 129.409 11.9688 129.102 12.2031C128.799 12.4375 128.435 12.6302 128.008 12.7812C127.581 12.9271 127.094 13 126.547 13Z" fill="currentColor"/>
		<path d="M131.406 11.7578C131.406 11.4245 131.521 11.1458 131.75 10.9219C131.984 10.6979 132.294 10.5859 132.68 10.5859C133.065 10.5859 133.372 10.6979 133.602 10.9219C133.836 11.1458 133.953 11.4245 133.953 11.7578C133.953 12.0911 133.836 12.3698 133.602 12.5938C133.372 12.8177 133.065 12.9297 132.68 12.9297C132.294 12.9297 131.984 12.8177 131.75 12.5938C131.521 12.3698 131.406 12.0911 131.406 11.7578Z" fill="currentColor"/>
		<path d="M139.43 11.2422C139.706 11.2422 139.951 11.1901 140.164 11.0859C140.378 10.9766 140.544 10.8255 140.664 10.6328C140.789 10.4349 140.854 10.2031 140.859 9.9375H142.977C142.971 10.5312 142.812 11.0599 142.5 11.5234C142.188 11.9818 141.768 12.3438 141.242 12.6094C140.716 12.8698 140.128 13 139.477 13C138.82 13 138.247 12.8906 137.758 12.6719C137.273 12.4531 136.87 12.151 136.547 11.7656C136.224 11.375 135.982 10.9219 135.82 10.4062C135.659 9.88542 135.578 9.32812 135.578 8.73438V8.50781C135.578 7.90885 135.659 7.35156 135.82 6.83594C135.982 6.3151 136.224 5.86198 136.547 5.47656C136.87 5.08594 137.273 4.78125 137.758 4.5625C138.242 4.34375 138.81 4.23438 139.461 4.23438C140.154 4.23438 140.76 4.36719 141.281 4.63281C141.807 4.89844 142.219 5.27865 142.516 5.77344C142.818 6.26302 142.971 6.84375 142.977 7.51562H140.859C140.854 7.23438 140.794 6.97917 140.68 6.75C140.57 6.52083 140.409 6.33854 140.195 6.20312C139.987 6.0625 139.729 5.99219 139.422 5.99219C139.094 5.99219 138.826 6.0625 138.617 6.20312C138.409 6.33854 138.247 6.52604 138.133 6.76562C138.018 7 137.938 7.26823 137.891 7.57031C137.849 7.86719 137.828 8.17969 137.828 8.50781V8.73438C137.828 9.0625 137.849 9.3776 137.891 9.67969C137.932 9.98177 138.01 10.25 138.125 10.4844C138.245 10.7188 138.409 10.9036 138.617 11.0391C138.826 11.1745 139.096 11.2422 139.43 11.2422Z" fill="currentColor"/>
		<path d="M143.922 8.70312V8.53906C143.922 7.91927 144.01 7.34896 144.188 6.82812C144.365 6.30208 144.622 5.84635 144.961 5.46094C145.299 5.07552 145.716 4.77604 146.211 4.5625C146.706 4.34375 147.273 4.23438 147.914 4.23438C148.555 4.23438 149.125 4.34375 149.625 4.5625C150.125 4.77604 150.544 5.07552 150.883 5.46094C151.227 5.84635 151.487 6.30208 151.664 6.82812C151.841 7.34896 151.93 7.91927 151.93 8.53906V8.70312C151.93 9.31771 151.841 9.88802 151.664 10.4141C151.487 10.9349 151.227 11.3906 150.883 11.7812C150.544 12.1667 150.128 12.4661 149.633 12.6797C149.138 12.8932 148.57 13 147.93 13C147.289 13 146.719 12.8932 146.219 12.6797C145.724 12.4661 145.305 12.1667 144.961 11.7812C144.622 11.3906 144.365 10.9349 144.188 10.4141C144.01 9.88802 143.922 9.31771 143.922 8.70312ZM146.172 8.53906V8.70312C146.172 9.05729 146.203 9.38802 146.266 9.69531C146.328 10.0026 146.427 10.2734 146.562 10.5078C146.703 10.737 146.885 10.9167 147.109 11.0469C147.333 11.1771 147.607 11.2422 147.93 11.2422C148.242 11.2422 148.51 11.1771 148.734 11.0469C148.958 10.9167 149.138 10.737 149.273 10.5078C149.409 10.2734 149.508 10.0026 149.57 9.69531C149.638 9.38802 149.672 9.05729 149.672 8.70312V8.53906C149.672 8.19531 149.638 7.8724 149.57 7.57031C149.508 7.26302 149.406 6.99219 149.266 6.75781C149.13 6.51823 148.951 6.33073 148.727 6.19531C148.503 6.0599 148.232 5.99219 147.914 5.99219C147.596 5.99219 147.326 6.0599 147.102 6.19531C146.883 6.33073 146.703 6.51823 146.562 6.75781C146.427 6.99219 146.328 7.26302 146.266 7.57031C146.203 7.8724 146.172 8.19531 146.172 8.53906Z" fill="currentColor"/>
		<path d="M155.562 6.14062V12.8438H153.305V4.39062H155.422L155.562 6.14062ZM155.25 8.32031H154.625C154.625 7.73177 154.695 7.1901 154.836 6.69531C154.982 6.19531 155.193 5.76302 155.469 5.39844C155.75 5.02865 156.096 4.74219 156.508 4.53906C156.919 4.33594 157.396 4.23438 157.938 4.23438C158.312 4.23438 158.656 4.29167 158.969 4.40625C159.281 4.51562 159.549 4.6901 159.773 4.92969C160.003 5.16406 160.18 5.47135 160.305 5.85156C160.43 6.22656 160.492 6.67708 160.492 7.20312V12.8438H158.242V7.45312C158.242 7.06771 158.19 6.77083 158.086 6.5625C157.982 6.35417 157.833 6.20833 157.641 6.125C157.453 6.04167 157.227 6 156.961 6C156.669 6 156.414 6.0599 156.195 6.17969C155.982 6.29948 155.805 6.46615 155.664 6.67969C155.523 6.88802 155.419 7.13281 155.352 7.41406C155.284 7.69531 155.25 7.9974 155.25 8.32031ZM160.281 8.0625L159.477 8.16406C159.477 7.61198 159.544 7.09896 159.68 6.625C159.82 6.15104 160.026 5.73438 160.297 5.375C160.573 5.01562 160.914 4.73698 161.32 4.53906C161.727 4.33594 162.195 4.23438 162.727 4.23438C163.133 4.23438 163.503 4.29427 163.836 4.41406C164.169 4.52865 164.453 4.71354 164.688 4.96875C164.927 5.21875 165.109 5.54688 165.234 5.95312C165.365 6.35938 165.43 6.85677 165.43 7.44531V12.8438H163.172V7.44531C163.172 7.05469 163.12 6.75781 163.016 6.55469C162.917 6.34635 162.771 6.20312 162.578 6.125C162.391 6.04167 162.167 6 161.906 6C161.635 6 161.398 6.05469 161.195 6.16406C160.992 6.26823 160.823 6.41406 160.688 6.60156C160.552 6.78906 160.451 7.00781 160.383 7.25781C160.315 7.5026 160.281 7.77083 160.281 8.0625Z" fill="currentColor"/>
		<path d="M167.281 11.7578C167.281 11.4245 167.396 11.1458 167.625 10.9219C167.859 10.6979 168.169 10.5859 168.555 10.5859C168.94 10.5859 169.247 10.6979 169.477 10.9219C169.711 11.1458 169.828 11.4245 169.828 11.7578C169.828 12.0911 169.711 12.3698 169.477 12.5938C169.247 12.8177 168.94 12.9297 168.555 12.9297C168.169 12.9297 167.859 12.8177 167.625 12.5938C167.396 12.3698 167.281 12.0911 167.281 11.7578Z" fill="currentColor"/>
		<path d="M171.812 0.84375H174.062V10.9062L173.836 12.8438H171.812V0.84375ZM179.414 8.53125V8.69531C179.414 9.32552 179.346 9.90365 179.211 10.4297C179.081 10.9557 178.878 11.4115 178.602 11.7969C178.326 12.1771 177.982 12.474 177.57 12.6875C177.164 12.8958 176.685 13 176.133 13C175.617 13 175.169 12.8958 174.789 12.6875C174.414 12.4792 174.099 12.1849 173.844 11.8047C173.589 11.4245 173.383 10.9792 173.227 10.4688C173.07 9.95833 172.953 9.40104 172.875 8.79688V8.4375C172.953 7.83333 173.07 7.27604 173.227 6.76562C173.383 6.25521 173.589 5.8099 173.844 5.42969C174.099 5.04948 174.414 4.75521 174.789 4.54688C175.164 4.33854 175.607 4.23438 176.117 4.23438C176.674 4.23438 177.159 4.34115 177.57 4.55469C177.987 4.76302 178.331 5.0599 178.602 5.44531C178.878 5.82552 179.081 6.27865 179.211 6.80469C179.346 7.32552 179.414 7.90104 179.414 8.53125ZM177.164 8.69531V8.53125C177.164 8.1875 177.138 7.86458 177.086 7.5625C177.039 7.25521 176.956 6.98698 176.836 6.75781C176.716 6.52344 176.552 6.33854 176.344 6.20312C176.141 6.06771 175.878 6 175.555 6C175.247 6 174.987 6.05208 174.773 6.15625C174.56 6.26042 174.383 6.40625 174.242 6.59375C174.107 6.78125 174.005 7.00521 173.938 7.26562C173.87 7.52083 173.828 7.80208 173.812 8.10938V9.13281C173.828 9.54427 173.896 9.90885 174.016 10.2266C174.141 10.5391 174.328 10.7865 174.578 10.9688C174.833 11.1458 175.164 11.2344 175.57 11.2344C175.888 11.2344 176.151 11.1719 176.359 11.0469C176.568 10.9219 176.729 10.7448 176.844 10.5156C176.964 10.2865 177.047 10.0182 177.094 9.71094C177.141 9.39844 177.164 9.0599 177.164 8.69531Z" fill="currentColor"/>
		<path d="M183.062 6.23438V12.8438H180.812V4.39062H182.93L183.062 6.23438ZM185.609 4.33594L185.57 6.42188C185.461 6.40625 185.328 6.39323 185.172 6.38281C185.021 6.36719 184.883 6.35938 184.758 6.35938C184.44 6.35938 184.164 6.40104 183.93 6.48438C183.701 6.5625 183.508 6.67969 183.352 6.83594C183.201 6.99219 183.086 7.18229 183.008 7.40625C182.935 7.63021 182.893 7.88542 182.883 8.17188L182.43 8.03125C182.43 7.48438 182.484 6.98177 182.594 6.52344C182.703 6.0599 182.862 5.65625 183.07 5.3125C183.284 4.96875 183.544 4.70312 183.852 4.51562C184.159 4.32812 184.51 4.23438 184.906 4.23438C185.031 4.23438 185.159 4.24479 185.289 4.26562C185.419 4.28125 185.526 4.30469 185.609 4.33594Z" fill="currentColor"/>
	</symbol>
	<symbol id="short-logo" width="100%" height="36" viewBox="0 0 32 36" fill="none" xmlns="http://www.w3.org/2000/svg">
		<path d="M31.1893 24.2193C31.7298 24.2193 32 24.9389 32 26.3783C32 27.1605 31.6662 28.1149 30.9985 29.2413C30.3308 30.3365 29.4565 31.3534 28.3756 32.2921C27.3264 33.1995 26.15 33.9505 24.8465 34.545C23.543 35.1395 22.303 35.4368 21.1267 35.4368C19.9503 35.4368 19.0283 35.2177 18.3607 34.7797C17.693 34.3416 17.1684 33.7471 16.7869 32.9961C16.2464 31.9323 15.8013 29.9141 15.4516 26.9415C15.1018 23.9377 14.7521 21.8412 14.4024 20.6522C13.5758 20.4957 12.8445 20.1828 12.2086 19.7135C11.6046 19.2128 11.3025 18.6183 11.3025 17.93C11.3025 17.2103 11.6205 16.694 12.2563 16.3811C12.924 16.0682 13.6711 15.9117 14.4978 15.9117C15.3562 15.9117 16.1192 16.1151 16.7869 16.5219C17.6771 15.8022 18.3924 14.9574 18.9329 13.9874C19.5052 12.9861 19.7914 11.6563 19.7914 9.99791C19.7914 8.30824 19.2191 6.96276 18.0745 5.96148C16.93 4.9602 15.2449 4.45956 13.0194 4.45956C10.8256 4.45956 9.14059 4.63165 7.96423 4.97584C6.78788 5.32003 5.77049 5.69551 4.91207 6.10228C4.08544 6.50906 3.3383 6.88454 2.67064 7.22873C2.03477 7.57292 1.4307 7.74502 0.85842 7.74502C0.28614 7.74502 0 7.57292 0 7.22873C0 6.85325 0.302037 6.25874 0.90611 5.44519C1.51018 4.63165 2.4004 3.8181 3.57675 3.00456C6.53353 0.970704 9.87183 -0.0305786 13.5917 0.000711122C17.3115 0.000711122 20.3795 0.689094 22.7958 2.06586C25.6254 3.69295 27.0402 6.13358 27.0402 9.38775C27.072 12.0787 26.3567 14.3159 24.8942 16.0995C23.4317 17.883 21.6195 19.1659 19.4575 19.9482C19.9344 20.9807 20.3159 22.0915 20.6021 23.2806C20.92 24.4696 21.2221 25.5647 21.5082 26.566C21.7943 27.5673 22.1123 28.3965 22.462 29.0536C22.8435 29.7107 23.2886 30.0392 23.7973 30.0392C24.3378 30.0392 24.9737 29.742 25.7049 29.1475C26.468 28.5217 27.2151 27.8489 27.9464 27.1292C28.6776 26.4096 29.3294 25.7525 29.9016 25.158C30.5057 24.5322 30.9349 24.2193 31.1893 24.2193ZM10.4441 7.3226C10.8574 7.3226 11.0641 7.85453 11.0641 8.9184C11.0641 9.98226 11.0005 10.9835 10.8733 11.9222C10.5872 13.7371 10.2216 15.4267 9.77645 16.9912C8.63189 21.2467 8.05961 23.7343 8.05961 24.4539V31.3534C8.05961 33.0431 7.40785 34.2008 6.10432 34.8266C5.50025 35.1082 4.91207 35.3742 4.33979 35.6245C3.7993 35.8748 3.17933 36 2.47988 36C1.14456 36 0.4769 34.4981 0.4769 31.4942C0.4769 28.4591 1.19225 24.6417 2.62295 20.042C4.05365 15.4424 5.54794 11.9379 7.10581 9.52855C7.42375 9.0592 7.88475 8.57421 8.48882 8.07356C9.0929 7.57292 9.74466 7.3226 10.4441 7.3226Z" fill="currentColor"/>
	</symbol>
</svg>

